PathFileType	4	(X/Y/Z)	D:\TRACE\v60_Jaco2_6-2-23\JustBodyDRS_Motion3_4-platform.trc
DataRate	CameraRate	NumFrames	NumMarkers	Units	OrigDataRate	OrigDataStartFrame	OrigNumFrames
100.00	100.00	      66	5	mm	100.00	1	      7000
Frame#	Time	Left_Front			Right_Front			Left_Aft			Right_Aft			Post			
		X1	Y1	Z1	X2	Y2	Z2	X3	Y3	Z3	X4	Y4	Z4	X5	Y5	Z5	

1	0.000	-814.72876	128.38245	-611.79694	755.82513	125.56262	-588.72552	-745.88684	-74.14558	504.42029	668.38721	-92.41475	608.35132	-21.50895	1462.14880	-684.04504	
2	0.010	-814.70575	128.35506	-611.82953	755.76746	125.57316	-588.74298	-745.84363	-74.12614	504.37939	668.39362	-92.41747	608.31763	-21.48809	1462.12146	-684.03784	
3	0.020	-814.67297	128.35616	-611.80206	755.80786	125.57522	-588.70898	-745.88385	-74.11652	504.37357	668.41016	-92.40048	608.34277	-21.50087	1462.08911	-684.03040	
4	0.030	-814.66315	128.36053	-611.88470	755.76678	125.57514	-588.75580	-745.89893	-74.10651	504.39166	668.44049	-92.38404	608.31573	-21.44658	1462.10376	-684.03583	
5	0.040	-814.50299	128.15538	-611.42792	755.77655	125.57722	-588.78802	-745.88641	-74.09866	504.36581	668.42798	-92.39327	608.31647	-21.46200	1462.12085	-684.03656	
6	0.050	-814.52179	128.16675	-611.40063	755.76447	125.55431	-588.72754	-745.88989	-74.13536	504.37402	668.42853	-92.38419	608.32428	-21.42991	1462.07532	-684.01990	
7	0.060	-814.68463	128.35286	-611.81836	755.76013	125.55230	-588.76227	-745.88269	-74.13672	504.39508	668.45386	-92.38763	608.31445	-21.48077	1462.12500	-684.03235	
8	0.070	-814.39984	128.10950	-611.29517	755.78058	125.53460	-588.74670	-745.87372	-74.14825	504.38730	668.42572	-92.41006	608.36017	-21.45446	1462.06494	-684.04114	
9	0.080	-814.49146	128.09560	-611.36066	755.79425	125.58800	-588.73450	-745.88593	-74.13099	504.38202	668.40143	-92.41736	608.32880	-21.49715	1462.11780	-684.05048	
10	0.090	-814.73181	128.40762	-611.84723	755.81183	125.56936	-588.72412	-745.90240	-74.12317	504.38870	668.44678	-92.37955	608.34644	-21.48820	1462.10962	-684.05420	
11	0.100	-814.72552	128.38242	-611.83472	755.79065	125.57342	-588.75153	-745.88910	-74.09983	504.39386	668.53345	-92.45011	608.34497	-21.49239	1462.10278	-684.03052	
12	0.110	-814.70331	128.38553	-611.85144	755.77283	125.59140	-588.73529	-745.86945	-74.12341	504.37021	668.49908	-92.45553	608.39850	-21.49900	1462.12158	-683.97412	
13	0.120	-814.72186	128.40500	-611.85480	755.78107	125.56815	-588.72913	-745.88818	-74.14854	504.37808	668.48840	-92.46393	608.35144	-21.46482	1462.12195	-684.01361	
14	0.130	-814.71771	128.36653	-611.82129	755.79999	125.57119	-588.67365	-745.89502	-74.13551	504.39941	668.51251	-92.46046	608.36005	-21.48180	1462.09070	-684.00287	
15	0.140	-814.69275	128.34119	-611.84747	755.77612	125.57609	-588.77911	-745.87445	-74.09062	504.37442	668.50452	-92.46899	608.39624	-21.45826	1462.12439	-684.01563	
16	0.150	-814.39722	128.08766	-611.31244	755.79419	125.53941	-588.75415	-745.85632	-74.11425	504.36661	668.42090	-92.39393	608.31030	-21.50272	1462.12744	-684.01654	
17	0.160	-814.73938	128.39919	-611.83704	755.76935	125.56895	-588.74188	-745.90430	-74.13206	504.39066	668.41553	-92.39948	608.33557	-21.42078	1462.09302	-683.99493	
18	0.170	-814.70099	128.36357	-611.84387	755.76978	125.56216	-588.73456	-745.91162	-74.14552	504.38858	668.48645	-92.48434	608.35840	-21.45531	1462.09045	-684.02869	
19	0.180	-814.70880	128.35840	-611.83484	755.76428	125.59399	-588.75977	-745.87213	-74.12115	504.38919	668.49591	-92.48045	608.35162	-21.51849	1462.15442	-684.05084	
20	0.190	-814.69257	128.35931	-611.84058	755.79401	125.57085	-588.76007	-745.92084	-74.12009	504.40619	668.40930	-92.39344	608.33514	-21.39771	1462.09705	-684.00189	
21	0.200	-814.72015	128.37491	-611.83777	755.77362	125.58184	-588.75604	-745.90289	-74.13099	504.39651	668.40338	-92.40326	608.32501	-21.47818	1462.12329	-684.02203	
22	0.210	-814.45892	128.14922	-611.36737	755.78992	125.57071	-588.72528	-745.88318	-74.12437	504.38397	668.41974	-92.39973	608.31555	-21.47999	1462.11926	-684.03992	
23	0.220	-814.69330	128.35767	-611.84296	755.78485	125.54562	-588.73224	-745.86810	-74.10199	504.37317	668.43292	-92.40060	608.32764	-21.50268	1462.14270	-684.02197	
24	0.230	-814.71661	128.39633	-611.83167	755.78802	125.56345	-588.75568	-745.88507	-74.12296	504.35724	668.43317	-92.39619	608.33789	-21.44038	1462.09741	-684.00964	
25	0.240	-814.72131	128.36664	-611.85999	755.73993	125.55701	-588.77887	-745.88171	-74.11685	504.40570	668.41852	-92.38883	608.34473	-21.45679	1462.13208	-684.03632	
26	0.250	-814.70490	128.39514	-611.85297	755.74847	125.56762	-588.76245	-745.87097	-74.11007	504.36520	668.48889	-92.46925	608.36267	-21.49400	1462.12720	-684.01294	
27	0.260	-814.73138	128.42017	-611.83307	755.77216	125.56939	-588.76068	-745.87695	-74.12067	504.37033	668.39508	-92.40866	608.33630	-21.48266	1462.11401	-684.04553	
28	0.270	-814.70471	128.38040	-611.88831	755.81232	125.57393	-588.71234	-745.90302	-74.07285	504.39578	668.49506	-92.47874	608.38123	-21.41061	1462.08997	-684.02179	
29	0.280	-814.45862	128.16438	-611.32898	755.79529	125.58209	-588.73138	-745.88251	-74.13534	504.36725	668.43781	-92.39015	608.33551	-21.49972	1462.12671	-684.00873	
30	0.290	-814.70245	128.37357	-611.81042	755.81207	125.57523	-588.73102	-745.88782	-74.13609	504.37497	668.42041	-92.40839	608.31738	-21.49776	1462.12036	-684.02911	
31	0.300	-814.69580	128.37375	-611.83856	755.76825	125.55190	-588.73810	-745.86511	-74.14272	504.39957	668.47302	-92.47947	608.33868	-21.53207	1462.13110	-684.02734	
32	0.310	-814.67914	128.34242	-611.85217	755.79224	125.58097	-588.71960	-745.90039	-74.18362	504.39960	668.49841	-92.47887	608.34058	-21.48983	1462.13757	-684.02734	
33	0.320	-814.69470	128.34842	-611.85773	755.79266	125.58009	-588.74988	-745.87408	-74.12560	504.38849	668.39966	-92.41251	608.34064	-21.49147	1462.12622	-684.02051	
34	0.330	-814.70612	128.37260	-611.84045	755.79248	125.58418	-588.71893	-745.89496	-74.12640	504.37589	668.40338	-92.39425	608.28467	-21.46340	1462.10803	-684.01477	
35	0.340	-814.69391	128.36630	-611.86078	755.80945	125.58858	-588.72943	-745.90704	-74.09816	504.39563	668.38788	-92.39809	608.34430	-21.54238	1462.14709	-684.05133	
36	0.350	-814.73706	128.39043	-611.80896	755.81647	125.58236	-588.71375	-745.87061	-74.09347	504.38110	668.41980	-92.40117	608.29547	-21.49124	1462.11511	-684.01746	
37	0.360	-814.43121	128.11070	-611.36609	755.82294	125.57581	-588.72284	-745.88013	-74.14887	504.38382	668.44415	-92.39322	608.30878	-21.50275	1462.14197	-684.03595	
38	0.370	-814.72241	128.39388	-611.82684	755.81000	125.55922	-588.72107	-745.89777	-74.13651	504.38647	668.39575	-92.40781	608.34064	-21.50452	1462.11011	-684.01294	
39	0.380	-814.72339	128.39606	-611.84125	755.80804	125.57357	-588.74139	-745.83997	-74.10325	504.38681	668.38885	-92.41299	608.31201	-21.51023	1462.12207	-684.01892	
40	0.390	-814.71790	128.38342	-611.85669	755.80273	125.57973	-588.75140	-745.88544	-74.11099	504.35574	668.41895	-92.40514	608.30878	-21.50317	1462.14233	-684.03522	
41	0.400	-814.72681	128.38379	-611.85687	755.79163	125.58248	-588.74670	-745.88495	-74.12359	504.38245	668.42743	-92.38902	608.29797	-21.53008	1462.12720	-684.01239	
42	0.410	-814.50055	128.16205	-611.38898	755.82025	125.57858	-588.73376	-745.86548	-74.13039	504.37909	668.37915	-92.39428	608.30957	-21.50818	1462.13086	-684.01825	
43	0.420	-814.72491	128.34204	-611.83441	755.81366	125.58556	-588.72443	-745.86011	-74.13694	504.40375	668.50458	-92.45664	608.37122	-21.47436	1462.12354	-684.01880	
44	0.430	-814.46429	128.12184	-611.38434	755.79443	125.56633	-588.71149	-745.87799	-74.11500	504.39432	668.47522	-92.45775	608.34326	-21.44759	1462.10803	-684.06134	
45	0.440	-814.67175	128.34633	-611.86414	755.81311	125.58517	-588.76410	-745.89746	-74.13383	504.41827	668.42615	-92.40278	608.32611	-21.48054	1462.11755	-684.03394	
46	0.450	-814.70129	128.35959	-611.85547	755.79181	125.59188	-588.73956	-745.87915	-74.08280	504.37372	668.41083	-92.40931	608.32153	-21.46775	1462.12402	-684.03204	
47	0.460	-814.67175	128.34435	-611.80408	755.80194	125.57188	-588.74170	-745.89557	-74.12133	504.37289	668.44452	-92.40778	608.30969	-21.43102	1462.08972	-684.05396	
48	0.470	-814.70337	128.35971	-611.84778	755.79443	125.56699	-588.72577	-745.88110	-74.13654	504.39359	668.40680	-92.41280	608.36206	-21.42132	1462.09827	-684.01630	
49	0.480	-814.71667	128.38623	-611.85675	755.80688	125.57027	-588.68457	-745.86969	-74.12840	504.39191	668.44440	-92.47918	608.36798	-21.46503	1462.09558	-684.03943	
50	0.490	-814.68274	128.36108	-611.86151	755.80542	125.56669	-588.71820	-745.86896	-74.11700	504.36545	668.46460	-92.40029	608.31079	-21.46379	1462.12671	-684.00586	
51	0.500	-814.70782	128.39183	-611.80701	755.80853	125.55252	-588.72754	-745.89990	-74.08655	504.37833	668.41779	-92.36723	608.34308	-21.50208	1462.14783	-684.03278	
52	0.510	-814.72113	128.39844	-611.82336	755.79633	125.57915	-588.74933	-745.88409	-74.10906	504.37726	668.42584	-92.38156	608.32092	-21.49780	1462.10559	-684.02838	
53	0.520	-814.67725	128.36876	-611.76886	755.82043	125.58905	-588.74945	-745.90875	-74.08989	504.39014	668.42664	-92.38204	608.33093	-21.43694	1462.09961	-684.01672	
54	0.530	-814.48242	128.14609	-611.34833	755.77704	125.56007	-588.74756	-745.86273	-74.17114	504.37616	668.36316	-92.42855	608.34357	-21.53902	1462.13599	-684.07056	
55	0.540	-814.69659	128.37332	-611.85773	755.79211	125.55276	-588.71619	-745.87921	-74.12498	504.39386	668.39197	-92.41971	608.29950	-21.45678	1462.12488	-684.03809	
56	0.550	-814.70227	128.38757	-611.84204	755.77887	125.59344	-588.73163	-745.89398	-74.12342	504.37164	668.40814	-92.40244	608.31531	-21.44811	1462.11707	-683.96881	
57	0.560	-814.70972	128.37631	-611.84265	755.80981	125.60603	-588.72345	-745.89893	-74.10268	504.36722	668.39410	-92.39674	608.31464	-21.52414	1462.11328	-684.02722	
58	0.570	-814.40198	128.08046	-611.33112	755.79858	125.57672	-588.73193	-745.89948	-74.10276	504.37347	668.52576	-92.45206	608.34821	-21.48771	1462.13464	-684.00262	
59	0.580	-814.69543	128.36781	-611.84869	755.81458	125.55535	-588.71930	-745.85297	-74.12550	504.35721	668.42096	-92.39818	608.32867	-21.44781	1462.12817	-683.99896	
60	0.590	-814.72125	128.38361	-611.79449	755.80682	125.57076	-588.70392	-745.93060	-74.13393	504.40152	668.38141	-92.42349	608.32245	-21.51632	1462.12976	-684.01221	
61	0.600	-814.65747	128.32202	-611.83899	755.78400	125.57185	-588.72906	-745.86908	-74.12467	504.39426	668.41541	-92.40907	608.30872	-21.42379	1462.08057	-683.96570	
62	0.610	-814.67761	128.35507	-611.86865	755.79132	125.60178	-588.72131	-745.87311	-74.13697	504.39349	668.39941	-92.39224	608.31976	-21.43968	1462.08447	-683.97821	
63	0.620	-814.42603	128.13010	-611.27216	755.81555	125.58926	-588.73480	-745.90759	-74.11393	504.38434	668.41559	-92.38880	608.29517	-21.43997	1462.09863	-684.01483	
64	0.630	-814.69873	128.36331	-611.83801	755.75970	125.57188	-588.74988	-745.89423	-74.11073	504.36975	668.41718	-92.38990	608.33728	-21.51296	1462.12805	-684.02795	
65	0.640	-814.70825	128.34157	-611.84918	755.78192	125.57951	-588.71533	-745.87811	-74.14514	504.40698	668.48724	-92.47398	608.36963	-21.49156	1462.13770	-683.99768	
66	0.650	-814.66583	128.30661	-611.83289	755.75854	125.57814	-588.71515	-745.87183	-74.14391	504.40259	668.39502	-92.43619	608.31134	-21.50500	1462.11914	-684.02435	
